# xmcd
#
# Track frame offsets:
#	150
#	11805
#	24142
#	35971
#	46269
#	57571
#	67517
#	77854
#	87546
#	97694
#	110709
#	122943
#	131075
#	141828
#	152700
#	167477
#	177874
#	187254
#	200104
#
# Disc length: 2854
#
# Revision: 2
# Processed by: cddbd v1.5.1PL0 Copyright (c) Steve Scherf et al.
# Submitted via: audiograbber 1.81.03
# Normalized: r1:DSETVAR1
#
DISCID=0d0b2413
DTITLE=Various Artist - 20 Golden Country Songs
DYEAR=1900
DGENRE=
TTITLE0=Roger Miller - Little Green Apples
TTITLE1=Charlie Rich - My Heart Cries For You
TTITLE2=Johnny Cash - I Walk The Line
TTITLE3=Glen Campbell - Walk Right In
TTITLE4=Patsy Cline - Walkin' After Midnight
TTITLE5=Buck Owens - Rhythm And Booze
TTITLE6=Conway Twitty - Born To Sing The Blues
TTITLE7=Jerry Lee Lewis - Movin' On Down The Line
TTITLE8=Carl Perkins - Blue Suede Shoes
TTITLE9=BJ. Thomas - Raindrops Keep Falling On My Head
TTITLE10=Johnny Cash - Folsom Prison Blues
TTITLE11=Roger Miller - Dear Heart
TTITLE12=Glen Campbell - Redwing
TTITLE13=Patsy Cline - Just Out Of Reach
TTITLE14=George Jones - Cold, Cold Heart
TTITLE15=Dave Dudley - Seven Lonely Days
TTITLE16=Jeannie C.Riley - The Girl Most Likeley
TTITLE17=Faron Young - I'm A Free Man Now
TTITLE18=Jimmy Dean - Release Me
EXTD=
EXTT0=
EXTT1=
EXTT2=
EXTT3=
EXTT4=
EXTT5=
EXTT6=
EXTT7=
EXTT8=
EXTT9=
EXTT10=
EXTT11=
EXTT12=
EXTT13=
EXTT14=
EXTT15=
EXTT16=
EXTT17=
EXTT18=
PLAYORDER=
